<!--version="1.0" encoding="UTF-8" standalone="no"--><!-- Created with Inkscape (http://www.inkscape.org/) --><svg width="290.403" height="115.736" viewBox="0 0 76.836 30.622" version="1.1" id="svg5" xml:space="preserve" inkscape:export-filename="bbs-icon.svg" inkscape:export-xdpi="96" inkscape:export-ydpi="96" xmlns:inkscape="http://www.inkscape.org/namespaces/inkscape" xmlns:sodipodi="http://sodipodi.sourceforge.net/DTD/sodipodi-0.dtd" xmlns="http://www.w3.org/2000/svg"><sodipodi:namedview id="namedview7" pagecolor="#ffffff" bordercolor="#111111" borderopacity="1" inkscape:showpageshadow="0" inkscape:pageopacity="0" inkscape:pagecheckerboard="1" inkscape:deskcolor="#d1d1d1" inkscape:document-units="mm" showgrid="false"/><g inkscape:label="Layer 1" inkscape:groupmode="layer" id="layer1" transform="translate(-1.1411848,-0.77922173)"><g aria-label="BBS" id="text186" style="font-size: 20.2018px; fill: rgb(215, 227, 244); stroke: rgb(0, 0, 0); stroke-width: 0.597249; paint-order: markers stroke fill;"><path d="M4.922 16.071V14.88h1.884V2.538H4.922V1.344h8.73q2.693 0 4.044.908 1.352.907 1.352 2.732 0 1.312-.937 2.081-.927.77-2.761.967 2.218.207 3.402 1.184 1.184.976 1.184 2.594 0 2.19-1.658 3.226-1.647 1.035-5.168 1.035zm5.682-8.58h1.292q1.697 0 2.516-.612.818-.621.818-1.894 0-1.282-.799-1.864-.788-.582-2.534-.582h-1.292zm0 7.388h1.41q1.885 0 2.792-.75.908-.75.908-2.318 0-1.578-.918-2.357-.917-.78-2.781-.78h-1.41z" style="font-weight: bold; font-family: &quot;DejaVu Serif&quot;;" id="path3445"/><path d="M21.997 16.071V14.88h1.884V2.538h-1.883V1.344h8.73q2.693 0 4.044.908 1.353.907 1.353 2.732 0 1.312-.937 2.081-.928.77-2.762.967 2.22.207 3.403 1.184 1.183.976 1.183 2.594 0 2.19-1.657 3.226-1.647 1.035-5.169 1.035zm5.682-8.58h1.291q1.698 0 2.517-.612.818-.621.818-1.894 0-1.282-.799-1.864-.789-.582-2.535-.582H27.68zm-.001 7.388h1.41q1.884 0 2.791-.75.909-.75.909-2.318-.001-1.578-.919-2.357-.916-.78-2.78-.78h-1.411z" style="font-weight: bold; font-family: &quot;DejaVu Serif&quot;;" id="path3447"/><path d="M39.684 15.361v-3.49h1.252q.286 1.656 1.352 2.475 1.065.819 2.95.819 1.528 0 2.327-.582.8-.582.8-1.707 0-.887-.543-1.38-.543-.494-2.24-.918l-2.21-.542q-2.16-.553-3.037-1.53-.878-.986-.878-2.8 0-2.19 1.45-3.404 1.46-1.222 4.084-1.222 1.293 0 2.684.217 1.4.217 2.9.65v3.256H49.32q-.285-1.518-1.252-2.218-.967-.71-2.752-.71-1.46 0-2.21.512-.74.503-.74 1.51 0 .917.514 1.4.513.474 2.515.987l2.21.543q2.051.513 2.969 1.598.927 1.086.927 2.99 0 2.23-1.538 3.393-1.539 1.154-4.528 1.154-1.44 0-2.86-.246-1.42-.246-2.89-.749z" style="font-weight: bold; font-family: &quot;DejaVu Serif&quot;;" id="path3449"/></g><path id="rect3433" style="fill: rgb(215, 227, 244); stroke: rgb(0, 0, 0); stroke-width: 0.439915; paint-order: markers stroke fill;" d="M4.113 20.068h55.984a2.745 2.745 0 0 1 2.752 2.752v3.23a2.745 2.745 0 0 1-2.753 2.751H4.113a2.745 2.745 0 0 1-2.752-2.75v-3.23a2.745 2.745 0 0 1 2.753-2.752z"/><g aria-label="cloud chat systems" id="text186-6" style="font-size: 46.5694px; fill: rgb(255, 255, 255); stroke: rgb(0, 0, 0); stroke-width: 0.429578; paint-order: markers stroke fill;"><path d="M6.801 25.08q-.093.411-.362.627-.269.215-.695.215-.562 0-.903-.37-.342-.373-.342-.989 0-.617.342-.985.34-.37.903-.37.245 0 .487.057.242.056.487.172v.66h-.26q-.05-.34-.222-.495-.17-.155-.487-.155-.361 0-.545.28-.184.28-.184.836-.001.558.18.838.184.282.548.282.288 0 .46-.15.172-.15.235-.453z" style="font-size: 4.96009px; font-family: &quot;DejaVu Serif&quot;;" id="path3452"/><path d="M8.046 25.595h.422v.257H7.172v-.257H7.6V22.34h-.428v-.257h.874z" style="font-size: 4.96009px; font-family: &quot;DejaVu Serif&quot;;" id="path3454"/><path d="M10.107 25.682q.359 0 .54-.283.184-.284.184-.837.001-.552-.183-.833-.181-.283-.54-.283-.358 0-.542.283-.182.281-.182.833 0 .553.184.836.184.282.54.282zm0 .24q-.562 0-.903-.37-.342-.373-.342-.989 0-.615.34-.985t.905-.37q.565 0 .904.37.342.37.342.985 0 .616-.341.989-.338.37-.903.37z" style="font-size: 4.96009px; font-family: &quot;DejaVu Serif&quot;;" id="path3456"/><path d="M13.357 23.277h.834v2.318h.422v.257h-.867v-.455q-.124.256-.32.392-.196.132-.455.132-.429 0-.632-.242-.201-.245-.201-.765v-1.378h-.402v-.26h.85v1.5q0 .47.114.644.115.175.41.175.31 0 .473-.227.162-.228.162-.662v-1.17h-.388z" style="font-size: 4.96009px; font-family: &quot;DejaVu Serif&quot;;" id="path3458"/><path d="M17.4 25.595h.426v.257h-.872v-.402q-.13.242-.334.358-.201.114-.5.114-.474 0-.777-.375-.3-.378-.3-.984 0-.605.3-.98.3-.376.778-.376.299 0 .5.116.203.114.334.356v-1.34h-.421v-.257h.867zm-.446-.903v-.254q0-.463-.18-.708-.176-.244-.515-.244-.345 0-.522.27-.174.272-.174.807 0 .533.174.807.177.274.52.274.34 0 .517-.243.18-.243.18-.708z" style="font-size: 4.96009px; font-family: &quot;DejaVu Serif&quot;;" id="path3460"/><path d="M22.098 25.08q-.094.411-.363.627-.27.215-.695.215-.562 0-.904-.37-.341-.373-.341-.989 0-.617.341-.985.342-.37.904-.37.244 0 .487.057.242.056.486.172v.66h-.259q-.05-.34-.223-.495-.168-.155-.485-.155-.361 0-.545.28-.184.28-.184.836 0 .558.181.838.184.282.548.282.288 0 .46-.15.172-.15.235-.453z" style="font-size: 4.96009px; font-family: &quot;DejaVu Serif&quot;;" id="path3462"/><path d="M22.53 25.852v-.257h.401V22.34h-.425v-.257h.872v1.652q.123-.261.32-.395.198-.133.46-.133.426 0 .627.245.201.244.201.763v1.38h.397v.257h-1.23v-.257h.385v-1.24q0-.472-.116-.644-.113-.173-.409-.173-.309 0-.47.225-.163.225-.163.656v1.177h.387v.257z" style="font-size: 4.96009px; font-family: &quot;DejaVu Serif&quot;;" id="path3464"/><path d="M27.494 25.043v-.545h-.574q-.332 0-.494.143-.162.144-.162.44 0 .268.165.426.163.157.444.157.279 0 .448-.172.172-.17.172-.447zm.446-.8v1.352h.397v.257h-.843v-.279q-.148.18-.341.264-.194.085-.453.085-.429 0-.68-.228-.253-.227-.253-.615 0-.4.289-.62.288-.221.813-.221h.624v-.178q0-.293-.18-.453-.176-.163-.498-.163-.266 0-.424.121-.157.121-.196.358h-.23v-.52q.232-.1.45-.148.22-.05.43-.05.534 0 .813.266.28.264.28.77z" style="font-size: 4.96009px; font-family: &quot;DejaVu Serif&quot;;" id="path3466"/><path d="M29.013 23.537h-.393v-.26h.393v-.799h.448v.8h.839v.259h-.84v1.634q0 .328.064.42.063.092.232.092.175 0 .255-.101.08-.103.085-.334h.337q-.02.352-.191.514t-.522.162q-.386 0-.545-.17-.16-.171-.16-.58z" style="font-size: 4.96009px; font-family: &quot;DejaVu Serif&quot;;" id="path3468"/><path d="M32.326 25.71v-.602h.257q.01.289.179.431.172.142.506.142.3 0 .458-.11.157-.115.157-.33 0-.17-.116-.274-.114-.104-.484-.223l-.323-.109q-.331-.106-.482-.266-.147-.16-.147-.407 0-.354.26-.555.26-.2.717-.2.203 0 .428.052.226.054.465.155v.562h-.256q-.01-.25-.175-.39-.165-.14-.449-.14-.28 0-.425.1-.143.099-.143.297 0 .162.11.262.108.097.435.198l.354.11q.366.113.526.285.163.169.163.437-.001.366-.282.577-.279.208-.77.208-.25 0-.487-.053-.237-.054-.474-.16z" style="font-size: 4.96009px; font-family: &quot;DejaVu Serif&quot;;" id="path3470"/><path d="m35.663 26.324.17-.428-.962-2.36h-.292v-.259h1.185v.26h-.412l.725 1.77.724-1.77h-.386v-.26h.966v.26h-.288l-1.18 2.896q-.12.3-.268.41-.148.11-.417.11-.113 0-.235-.018-.118-.02-.24-.056v-.493h.228q.015.165.083.235.07.073.215.073.133 0 .213-.075.084-.073.173-.296z" style="font-size: 4.96009px; font-family: &quot;DejaVu Serif&quot;;" id="path3472"/><path d="M37.674 25.71v-.602h.256q.01.289.18.431.171.142.506.142.3 0 .457-.11.158-.115.158-.33 0-.17-.115-.274-.114-.104-.485-.223l-.322-.109q-.332-.106-.482-.266-.148-.16-.148-.407 0-.354.26-.555.259-.2.716-.2.204 0 .43.052.224.054.464.155v.562h-.257q-.008-.25-.173-.39-.165-.14-.448-.14-.282 0-.427.1-.143.099-.143.297 0 .162.109.262.108.097.435.198l.353.11q.366.113.526.285.162.169.162.437 0 .366-.28.577-.28.208-.77.208-.25 0-.488-.053-.237-.054-.474-.16z" style="font-size: 4.96009px; font-family: &quot;DejaVu Serif&quot;;" id="path3474"/><path d="M40.476 23.537h-.393v-.26h.393v-.799h.448v.8h.838v.259h-.838v1.634q0 .328.063.42.063.092.232.092.174 0 .254-.101.08-.103.084-.334h.337q-.02.352-.191.514-.172.162-.524.162-.385 0-.544-.17-.16-.171-.16-.58z" style="font-size: 4.96009px; font-family: &quot;DejaVu Serif&quot;;" id="path3476"/><path d="M44.622 24.612h-1.92v.02q0 .52.196.786.196.264.578.264.293 0 .48-.152.189-.155.264-.458h.358q-.106.424-.394.637-.286.212-.754.212-.564 0-.908-.37-.341-.373-.341-.989 0-.61.337-.983.337-.373.884-.373.585 0 .897.361.313.359.325 1.044zm-.526-.257q-.014-.45-.19-.678-.175-.23-.505-.23-.306 0-.483.23-.177.23-.216.678z" style="font-size: 4.96009px; font-family: &quot;DejaVu Serif&quot;;" id="path3478"/><path d="M47.439 23.779q.127-.285.326-.427.2-.146.467-.146.405 0 .603.252.199.249.199.755v1.38h.402v.257h-1.235v-.257h.387v-1.33q0-.394-.117-.561-.116-.167-.385-.167-.298 0-.456.225-.155.225-.155.656v1.177h.388v.257h-1.22v-.257h.387V24.25q0-.386-.116-.549-.117-.163-.386-.163-.297 0-.455.225-.155.225-.155.656v1.177h.388v.257h-1.236v-.257h.403v-2.063h-.427v-.255h.872v.458q.124-.257.315-.392.191-.136.434-.136.299 0 .5.15.2.148.269.422z" style="font-size: 4.96009px; font-family: &quot;DejaVu Serif&quot;;" id="path3480"/><path d="M49.85 25.71v-.602h.258q.01.289.179.431.172.142.506.142.3 0 .458-.11.158-.115.158-.33 0-.17-.116-.274-.114-.104-.484-.223l-.323-.109q-.331-.106-.481-.266-.148-.16-.148-.407 0-.354.259-.555.26-.2.717-.2.203 0 .428.052.226.054.465.155v.562h-.256q-.01-.25-.176-.39-.164-.14-.448-.14-.28 0-.426.1-.143.099-.143.297 0 .162.11.262.108.097.435.198l.354.11q.365.113.525.285.164.169.164.437 0 .366-.281.577-.279.208-.77.208-.25 0-.487-.053-.238-.054-.475-.16z" style="font-size: 4.96009px; font-family: &quot;DejaVu Serif&quot;;" id="path3482"/></g><g inkscape:label="Layer 1" id="layer1-7" transform="matrix(0.05690266,0,0,0.05690266,41.567079,-18.784393)"><path style="fill: rgb(255, 255, 255); fill-opacity: 1; stroke: rgb(0, 0, 0); stroke-width: 21.7864; stroke-miterlimit: 4; stroke-dasharray: none; stroke-opacity: 1;" d="M393.703 604.777c10.923-.532 17.903-.66 24.17.34 6.266 1.001 11.755 3.305 19.403 6.808 9.113 4.172 18.94 10.678 27.574 18.383 8.633 7.704 16.158 16.474 21.105 24.85 2.15 3.64 4.202 5.754 6.808 7.148 2.607 1.395 5.887 2.035 10.553 2.043 10.368.02 20.309 2.08 29.616 5.786 9.306 3.705 17.76 8.996 25.19 15.659 7.43 6.662 13.985 14.6 18.723 23.488 4.737 8.889 7.62 18.892 8.85 29.275.872 7.327 1.81 11.5 3.745 14.638 1.935 3.139 5.18 5.03 10.553 7.83 10.14 5.281 17.296 13.056 22.127 22.126 4.831 9.07 7.19 19.655 6.808 29.957-.38 10.3-3.35 20.297-8.85 29.274-5.5 8.977-13.646 16.692-24.17 21.786-7.12 3.447-11.588 5.255-31.658 6.128-20.07.872-55.65.82-124.59.68-77.94-.156-145.637-1.263-150.463-2.723-9.773-2.956-18.663-8.027-26.212-14.297-7.55-6.27-13.932-13.848-18.722-22.467-4.79-8.619-8.036-18.247-9.532-28.253-1.494-10.007-.968-20.548 1.363-30.978 2.57-11.49 8.368-22.613 16.34-32 7.971-9.386 17.958-16.703 28.594-20.765 7.06-2.696 10.529-4.382 12.595-7.489 2.068-3.106 2.764-7.97 3.745-17.36 1.296-12.405 3.612-22.064 7.49-30.978 3.876-8.915 9.26-17.01 17.36-26.212 9.516-10.812 19.428-18.534 30.978-23.829 11.55-5.295 24.766-8.082 40.508-8.85z" id="path4178" inkscape:connector-curvature="0"/><path id="path7338" style="opacity: 0.98; fill: rgb(255, 255, 255); stroke-width: 2.65288;" transform="matrix(10.893178,0,0,10.893178,-477.59207,-4673.5588)" d="M92.637 479.387a1.76 1.76 0 0 0-.002.002c-.023-.001-.093 0-.16 0-.002 0-.003.003-.004.003-3.5.024-6.418 2.916-6.433 6.433-.004.094.002.153 0 .243a1.76 1.76 0 0 0-1.19 1.542c.031 2.507-.065 5.1.053 7.757a1.76 1.76 0 0 0 .018.18c.375 2.517 2.494 4.69 5.277 4.56l-.08.002c1.852-.003 3.778.06 5.764-.041a1.76 1.76 0 0 0 .208-.023c2.79-.48 4.542-3.08 4.338-5.756l.006.152c.02-2.3-.001-4.58.008-6.842a1.76 1.76 0 0 0-1.211-1.654c-.037-1.079-.196-2.233-.947-3.393a6.57 6.57 0 0 0-5.646-3.166zm-.024 5.502.018-.001a1.76 1.76 0 0 0 .016-.001c.45.005 1.025.508 1.016.833a1.76 1.76 0 0 0 0 .107h-2.074c.003-.016-.003-.16.002-.168a1.76 1.76 0 0 0 .057-.101c.197-.38.651-.665.92-.67a1.76 1.76 0 0 0 .046-.001z"/><path inkscape:connector-curvature="0" style="opacity: 0.98; fill: rgb(0, 0, 0); fill-opacity: 1; stroke: none; stroke-width: 2.65288; stroke-linejoin: miter; stroke-miterlimit: 4; stroke-dasharray: none; stroke-dashoffset: 0; stroke-opacity: 1;" d="M531.64 567.668c-.588.004-1.17.009-1.757.032-26.903.171-51.04 24.096-51.109 51.07-.305 6.36.11 12.723 0 19.084h-12.961c.348 27.949-.698 55.962.544 83.87 2.682 17.972 18.82 34.223 37.637 33.348 20.605-.032 41.272.638 61.84-.416 19.308-3.327 32.867-23.152 31.403-42.341.218-24.814 0-49.629.109-74.443-4.302-.109-8.604.076-12.906-.054.327-15.11 1.035-31.625-7.576-44.722-9.313-15.542-27.066-25.548-45.213-25.432zm.25 21.577c15.286.21 30.387 12.868 29.947 28.794.305 6.603.501 13.21.643 19.82-20.563-.01-41.126.032-61.688-.034.109-10.337-2.71-21.64 2.946-30.948 5.138-9.862 15.405-17.408 26.679-17.61.49-.021.98-.032 1.474-.021z" id="path3355"/></g></g></svg>